<mxfile host="Electron" modified="2023-09-25T13:03:53.840Z" agent="Mozilla/5.0 (Windows NT 10.0; Win64; x64) AppleWebKit/537.36 (KHTML, like Gecko) draw.io/21.6.8 Chrome/114.0.5735.289 Electron/25.5.0 Safari/537.36" etag="zXm5I7sbtSjCxscIUS2B" version="21.6.8" type="device">
  <diagram name="Page-1" id="uelJFIs8Anr73VACWAJr">
    <mxGraphModel dx="1036" dy="623" grid="1" gridSize="10" guides="1" tooltips="1" connect="1" arrows="1" fold="1" page="1" pageScale="1" pageWidth="850" pageHeight="1100" math="0" shadow="0">
      <root>
        <mxCell id="0" />
        <mxCell id="1" parent="0" />
        <mxCell id="rlGMDkgJDtpUSBhZU97J-1" value="" style="ellipse;html=1;shape=startState;fillColor=#000000;strokeColor=#ff0000;" parent="1" vertex="1">
          <mxGeometry x="350" y="150" width="30" height="30" as="geometry" />
        </mxCell>
        <mxCell id="rlGMDkgJDtpUSBhZU97J-2" value="" style="edgeStyle=orthogonalEdgeStyle;html=1;verticalAlign=bottom;endArrow=open;endSize=8;strokeColor=#FF0000;rounded=0;" parent="1" source="rlGMDkgJDtpUSBhZU97J-1" edge="1">
          <mxGeometry relative="1" as="geometry">
            <mxPoint x="365" y="220" as="targetPoint" />
          </mxGeometry>
        </mxCell>
        <mxCell id="rlGMDkgJDtpUSBhZU97J-3" value="Check Out" style="rounded=1;whiteSpace=wrap;html=1;arcSize=40;fontColor=#000000;fillColor=#ffffc0;strokeColor=#ff0000;" parent="1" vertex="1">
          <mxGeometry x="305" y="220" width="120" height="40" as="geometry" />
        </mxCell>
        <mxCell id="rlGMDkgJDtpUSBhZU97J-4" value="" style="edgeStyle=orthogonalEdgeStyle;html=1;verticalAlign=bottom;endArrow=open;endSize=8;strokeColor=#FF0000;rounded=0;" parent="1" source="rlGMDkgJDtpUSBhZU97J-3" edge="1">
          <mxGeometry relative="1" as="geometry">
            <mxPoint x="365" y="300" as="targetPoint" />
          </mxGeometry>
        </mxCell>
        <mxCell id="rlGMDkgJDtpUSBhZU97J-11" value="" style="edgeStyle=orthogonalEdgeStyle;rounded=0;orthogonalLoop=1;jettySize=auto;html=1;strokeColor=#FF0000;" parent="1" source="rlGMDkgJDtpUSBhZU97J-5" edge="1">
          <mxGeometry relative="1" as="geometry">
            <mxPoint x="480" y="334" as="targetPoint" />
          </mxGeometry>
        </mxCell>
        <mxCell id="rlGMDkgJDtpUSBhZU97J-16" style="edgeStyle=orthogonalEdgeStyle;rounded=0;orthogonalLoop=1;jettySize=auto;html=1;exitX=0.5;exitY=1;exitDx=0;exitDy=0;strokeColor=#FF0000;" parent="1" source="rlGMDkgJDtpUSBhZU97J-5" edge="1">
          <mxGeometry relative="1" as="geometry">
            <mxPoint x="364" y="420" as="targetPoint" />
          </mxGeometry>
        </mxCell>
        <mxCell id="rlGMDkgJDtpUSBhZU97J-5" value="&lt;font style=&quot;font-size: 13px;&quot;&gt;is product&lt;br&gt;add in cart&lt;/font&gt;" style="rhombus;whiteSpace=wrap;html=1;fontColor=#000000;fillColor=#ffffc0;strokeColor=#ff0000;" parent="1" vertex="1">
          <mxGeometry x="307" y="299" width="114" height="70" as="geometry" />
        </mxCell>
        <mxCell id="rlGMDkgJDtpUSBhZU97J-15" style="edgeStyle=orthogonalEdgeStyle;rounded=0;orthogonalLoop=1;jettySize=auto;html=1;exitX=1;exitY=0.5;exitDx=0;exitDy=0;entryX=1;entryY=0.5;entryDx=0;entryDy=0;strokeColor=#FF0000;" parent="1" source="rlGMDkgJDtpUSBhZU97J-12" target="rlGMDkgJDtpUSBhZU97J-3" edge="1">
          <mxGeometry relative="1" as="geometry">
            <Array as="points">
              <mxPoint x="590" y="334" />
              <mxPoint x="590" y="240" />
            </Array>
          </mxGeometry>
        </mxCell>
        <mxCell id="rlGMDkgJDtpUSBhZU97J-14" value="No" style="text;html=1;align=center;verticalAlign=middle;resizable=0;points=[];autosize=1;strokeColor=none;fillColor=none;" parent="1" vertex="1">
          <mxGeometry x="430" y="308" width="40" height="30" as="geometry" />
        </mxCell>
        <mxCell id="rlGMDkgJDtpUSBhZU97J-17" value="Yes" style="text;html=1;align=center;verticalAlign=middle;resizable=0;points=[];autosize=1;strokeColor=none;fillColor=none;" parent="1" vertex="1">
          <mxGeometry x="360" y="378" width="40" height="30" as="geometry" />
        </mxCell>
        <mxCell id="rlGMDkgJDtpUSBhZU97J-18" value="Add Shipping Address" style="rounded=1;whiteSpace=wrap;html=1;arcSize=40;fontColor=#000000;fillColor=#ffffc0;strokeColor=#ff0000;" parent="1" vertex="1">
          <mxGeometry x="305" y="420" width="120" height="40" as="geometry" />
        </mxCell>
        <mxCell id="rlGMDkgJDtpUSBhZU97J-19" value="" style="edgeStyle=orthogonalEdgeStyle;html=1;verticalAlign=bottom;endArrow=open;endSize=8;strokeColor=#FF0000;rounded=0;" parent="1" source="rlGMDkgJDtpUSBhZU97J-18" edge="1">
          <mxGeometry relative="1" as="geometry">
            <mxPoint x="365" y="500" as="targetPoint" />
          </mxGeometry>
        </mxCell>
        <mxCell id="rlGMDkgJDtpUSBhZU97J-22" value="" style="ellipse;html=1;shape=endState;fillColor=#000000;strokeColor=#ff0000;" parent="1" vertex="1">
          <mxGeometry x="352" y="659" width="30" height="30" as="geometry" />
        </mxCell>
        <mxCell id="rlGMDkgJDtpUSBhZU97J-23" value="Confirm Order" style="rounded=1;whiteSpace=wrap;html=1;arcSize=40;fontColor=#000000;fillColor=#ffffc0;strokeColor=#ff0000;" parent="1" vertex="1">
          <mxGeometry x="307" y="579" width="120" height="40" as="geometry" />
        </mxCell>
        <mxCell id="rlGMDkgJDtpUSBhZU97J-24" value="" style="edgeStyle=orthogonalEdgeStyle;html=1;verticalAlign=bottom;endArrow=open;endSize=8;strokeColor=#FF0000;rounded=0;" parent="1" source="rlGMDkgJDtpUSBhZU97J-23" edge="1">
          <mxGeometry relative="1" as="geometry">
            <mxPoint x="367" y="659" as="targetPoint" />
          </mxGeometry>
        </mxCell>
        <mxCell id="rlGMDkgJDtpUSBhZU97J-26" value="update" style="rhombus;whiteSpace=wrap;html=1;fontColor=#000000;fillColor=#ffffc0;strokeColor=#ff0000;" parent="1" vertex="1">
          <mxGeometry x="325" y="500" width="80" height="40" as="geometry" />
        </mxCell>
        <mxCell id="rlGMDkgJDtpUSBhZU97J-27" value="Yes" style="edgeStyle=orthogonalEdgeStyle;html=1;align=left;verticalAlign=bottom;endArrow=open;endSize=8;strokeColor=#FF0000;rounded=0;entryX=1;entryY=0.5;entryDx=0;entryDy=0;" parent="1" source="rlGMDkgJDtpUSBhZU97J-26" target="rlGMDkgJDtpUSBhZU97J-18" edge="1">
          <mxGeometry x="-1" relative="1" as="geometry">
            <mxPoint x="505" y="520" as="targetPoint" />
            <Array as="points">
              <mxPoint x="435" y="520" />
              <mxPoint x="435" y="440" />
            </Array>
          </mxGeometry>
        </mxCell>
        <mxCell id="rlGMDkgJDtpUSBhZU97J-28" value="No" style="edgeStyle=orthogonalEdgeStyle;html=1;align=left;verticalAlign=top;endArrow=open;endSize=8;strokeColor=#FF0000;rounded=0;" parent="1" source="rlGMDkgJDtpUSBhZU97J-26" edge="1">
          <mxGeometry x="-1" relative="1" as="geometry">
            <mxPoint x="365" y="580" as="targetPoint" />
          </mxGeometry>
        </mxCell>
        <mxCell id="rlGMDkgJDtpUSBhZU97J-29" value="" style="swimlane;startSize=0;" parent="1" vertex="1">
          <mxGeometry x="230" y="117" width="450" height="673" as="geometry" />
        </mxCell>
        <mxCell id="rlGMDkgJDtpUSBhZU97J-12" value="Search Product" style="rounded=1;whiteSpace=wrap;html=1;arcSize=40;fontColor=#000000;fillColor=#ffffc0;strokeColor=#ff0000;" parent="rlGMDkgJDtpUSBhZU97J-29" vertex="1">
          <mxGeometry x="250" y="197" width="102" height="40" as="geometry" />
        </mxCell>
        <mxCell id="073oX15DX5aGsPmUtMl6-1" value="&lt;font style=&quot;font-size: 14px;&quot;&gt;Figure: Coustomer Checkout Activity Diagram&lt;/font&gt;" style="text;html=1;align=center;verticalAlign=middle;resizable=0;points=[];autosize=1;strokeColor=none;fillColor=none;" vertex="1" parent="rlGMDkgJDtpUSBhZU97J-29">
          <mxGeometry x="65" y="613" width="310" height="30" as="geometry" />
        </mxCell>
      </root>
    </mxGraphModel>
  </diagram>
</mxfile>
